HIERARCHY
ROOT Hip
{
 OFFSET 0.0000 0.0000 0.0000
 CHANNELS 6 Xposition Yposition Zposition Xrotation Yrotation Zrotation
 JOINT LowerSpine
 {
  OFFSET 0.0000 9.5388 -5.1619
  CHANNELS 3 Xrotation Yrotation Zrotation
  JOINT MiddleSpine
  {
   OFFSET 0.0000 8.7049 0.4547
   CHANNELS 3 Xrotation Yrotation Zrotation
   JOINT Chest
   {
    OFFSET 0.0000 10.7713 -2.3976
    CHANNELS 3 Xrotation Yrotation Zrotation
    JOINT Neck
    {
     OFFSET 0.0000 24.2727 -0.5048
     CHANNELS 3 Xrotation Yrotation Zrotation
     JOINT Head
     {
      OFFSET 0.0000 13.7071 3.7283
      CHANNELS 3 Xrotation Yrotation Zrotation
      End Site
      {
       OFFSET 0.0001 19.1523 0.5717
      }
     }
    }
    JOINT LClavicle
    {
     OFFSET 2.4505 23.4243 8.0253
     CHANNELS 3 Xrotation Yrotation Zrotation
     JOINT LShoulder
     {
      OFFSET 14.3163 3.3599 -5.4366
      CHANNELS 3 Xrotation Yrotation Zrotation
      JOINT LForearm
      {
       OFFSET 30.4107 -0.1080 -0.2635
       CHANNELS 3 Xrotation Yrotation Zrotation
       JOINT LHand
       {
        OFFSET 25.3689 0.0736 -0.1519
        CHANNELS 3 Xrotation Yrotation Zrotation
        JOINT LFinger1
        {
         OFFSET 9.8322 0.8599 2.7309
         CHANNELS 3 Xrotation Yrotation Zrotation
         JOINT LFinger11
         {
          OFFSET 3.6778 -0.8968 0.6480
          CHANNELS 3 Xrotation Yrotation Zrotation
          JOINT LFinger12
          {
           OFFSET 2.5107 -0.6125 0.4426
           CHANNELS 3 Xrotation Yrotation Zrotation
           End Site
           {
            OFFSET 1.7866 -0.5333 0.2898
           }
          }
         }
        }
        JOINT LFinger2
        {
         OFFSET 9.9790 0.9930 0.2378
         CHANNELS 3 Xrotation Yrotation Zrotation
         JOINT LFinger21
         {
          OFFSET 4.5474 0.0127 -0.0269
          CHANNELS 3 Xrotation Yrotation Zrotation
          JOINT LFinger22
          {
           OFFSET 2.5205 0.0077 -0.0153
           CHANNELS 3 Xrotation Yrotation Zrotation
           End Site
           {
            OFFSET 2.2640 -0.1599 0.0030
           }
          }
         }
        }
        JOINT LFinger3
        {
         OFFSET 9.4572 0.6626 -2.2373
         CHANNELS 3 Xrotation Yrotation Zrotation
         JOINT LFinger31
         {
          OFFSET 4.1262 -0.2089 -0.2583
          CHANNELS 3 Xrotation Yrotation Zrotation
          JOINT LFinger32
          {
           OFFSET 2.3513 -0.1183 -0.1478
           CHANNELS 3 Xrotation Yrotation Zrotation
           End Site
           {
            OFFSET 2.0790 -0.2556 -0.0983
           }
          }
         }
        }
        JOINT LFinger4
        {
         OFFSET 8.7759 -0.6670 -3.8640
         CHANNELS 3 Xrotation Yrotation Zrotation
         JOINT LFinger41
         {
          OFFSET 2.5380 -0.5293 -0.7006
          CHANNELS 3 Xrotation Yrotation Zrotation
          JOINT LFinger42
          {
           OFFSET 1.8611 -0.3876 -0.5141
           CHANNELS 3 Xrotation Yrotation Zrotation
           End Site
           {
            OFFSET 1.6519 -0.4539 -0.3790
           }
          }
         }
        }
        JOINT LFinger0
        {
         OFFSET 2.0339 -1.5395 1.5419
         CHANNELS 3 Xrotation Yrotation Zrotation
         JOINT LFinger01
         {
          OFFSET 3.7868 -1.2438 2.8551
          CHANNELS 3 Xrotation Yrotation Zrotation
          JOINT LFinger02
          {
           OFFSET 2.4936 -0.8922 1.7966
           CHANNELS 3 Xrotation Yrotation Zrotation
           End Site
           {
            OFFSET 1.8337 -0.6312 1.2556
           }
          }
         }
        }
       }
      }
     }
    }
    JOINT RClavicle
    {
     OFFSET -2.4505 23.4243 8.0253
     CHANNELS 3 Xrotation Yrotation Zrotation
     JOINT RShoulder
     {
      OFFSET -14.3189 3.3605 -5.4375
      CHANNELS 3 Xrotation Yrotation Zrotation
      JOINT RForearm
      {
       OFFSET -30.4107 -0.1080 -0.2635
       CHANNELS 3 Xrotation Yrotation Zrotation
       JOINT RHand
       {
        OFFSET -25.3689 0.0736 -0.1519
        CHANNELS 3 Xrotation Yrotation Zrotation
        JOINT RFinger1
        {
         OFFSET -9.8322 0.8599 2.7309
         CHANNELS 3 Xrotation Yrotation Zrotation
         JOINT RFinger11
         {
          OFFSET -3.6778 -0.8968 0.6480
          CHANNELS 3 Xrotation Yrotation Zrotation
          JOINT RFinger12
          {
           OFFSET -2.5107 -0.6125 0.4426
           CHANNELS 3 Xrotation Yrotation Zrotation
           End Site
           {
            OFFSET -1.7866 -0.5333 0.2898
           }
          }
         }
        }
        JOINT RFinger2
        {
         OFFSET -9.9790 0.9930 0.2378
         CHANNELS 3 Xrotation Yrotation Zrotation
         JOINT RFinger21
         {
          OFFSET -4.5474 0.0127 -0.0269
          CHANNELS 3 Xrotation Yrotation Zrotation
          JOINT RFinger22
          {
           OFFSET -2.5205 0.0077 -0.0153
           CHANNELS 3 Xrotation Yrotation Zrotation
           End Site
           {
            OFFSET -2.2640 -0.1599 0.0030
           }
          }
         }
        }
        JOINT RFinger3
        {
         OFFSET -9.4572 0.6626 -2.2373
         CHANNELS 3 Xrotation Yrotation Zrotation
         JOINT RFinger31
         {
          OFFSET -4.1262 -0.2089 -0.2583
          CHANNELS 3 Xrotation Yrotation Zrotation
          JOINT RFinger32
          {
           OFFSET -2.3513 -0.1183 -0.1478
           CHANNELS 3 Xrotation Yrotation Zrotation
           End Site
           {
            OFFSET -2.0790 -0.2556 -0.0983
           }
          }
         }
        }
        JOINT RFinger4
        {
         OFFSET -8.7759 -0.6670 -3.8640
         CHANNELS 3 Xrotation Yrotation Zrotation
         JOINT RFinger41
         {
          OFFSET -2.5380 -0.5293 -0.7006
          CHANNELS 3 Xrotation Yrotation Zrotation
          JOINT RFinger42
          {
           OFFSET -1.8611 -0.3876 -0.5141
           CHANNELS 3 Xrotation Yrotation Zrotation
           End Site
           {
            OFFSET -1.6519 -0.4539 -0.3790
           }
          }
         }
        }
        JOINT RFinger0
        {
         OFFSET -2.0339 -1.5395 1.5419
         CHANNELS 3 Xrotation Yrotation Zrotation
         JOINT RFinger01
         {
          OFFSET -3.7869 -1.2438 2.8551
          CHANNELS 3 Xrotation Yrotation Zrotation
          JOINT RFinger02
          {
           OFFSET -2.4936 -0.8922 1.7966
           CHANNELS 3 Xrotation Yrotation Zrotation
           End Site
           {
            OFFSET -1.8337 -0.6312 1.2556
           }
          }
         }
        }
       }
      }
     }
    }
   }
  }
 }
 JOINT RThigh
 {
  OFFSET -10.2041 4.3118 -0.8411
  CHANNELS 3 Xrotation Yrotation Zrotation
  JOINT RShin
  {
   OFFSET -0.8165 -44.3834 0.0000
   CHANNELS 3 Xrotation Yrotation Zrotation
   JOINT RFoot
   {
    OFFSET 0.0000 -43.5818 0.0000
    CHANNELS 3 Xrotation Yrotation Zrotation
    JOINT RToe
    {
     OFFSET 0.0000 -4.7900 10.0166
     CHANNELS 3 Xrotation Yrotation Zrotation
     End Site
     {
      OFFSET 0.0000 0.0000 6.7197
     }
    }
   }
  }
 }
 JOINT LThigh
 {
  OFFSET 10.2041 4.3121 -0.8411
  CHANNELS 3 Xrotation Yrotation Zrotation
  JOINT LShin
  {
   OFFSET 0.8166 -44.3837 0.0000
   CHANNELS 3 Xrotation Yrotation Zrotation
   JOINT LFoot
   {
    OFFSET 0.0000 -43.5818 0.0000
    CHANNELS 3 Xrotation Yrotation Zrotation
    JOINT LToe
    {
     OFFSET 0.0000 -4.7900 10.0166
     CHANNELS 3 Xrotation Yrotation Zrotation
     End Site
     {
      OFFSET 0.0000 0.0000 6.7197
     }
    }
   }
  }
 }
}
MOTION
Frames: 4
Frame Time: 0.0333333000
 16.6481 89.8468 2.7916 -38.703270 148.646000 381.783800 4.392783 11.243470 -2.663798 4.392783 11.243470 -2.663798 4.392783 11.243470 -2.663798 0.000000 0.000000 0.000000 0.000000 0.000000 0.000000 -6.783721 -11.425520 -20.678990 -375.088600 16.964200 -357.640400 -15.976030 -61.816480 -0.032076 0.000000 0.000000 0.000000 0.000000 0.000000 0.000000 0.000000 0.000000 0.000000 0.000000 0.000000 0.000000 0.000000 0.000000 0.000000 0.000000 0.000000 0.000000 0.000000 0.000000 0.000000 0.000000 0.000000 0.000000 0.000000 0.000000 0.000000 0.000000 0.000000 0.000000 0.000000 0.000000 0.000000 0.000000 0.000000 0.000000 0.000000 0.000000 0.000000 0.000000 0.000000 0.000000 0.000000 0.000000 0.000000 0.000000 0.000000 0.000000 -0.182299 11.218290 5.920837 177.686800 130.608900 -155.827400 -0.804309 60.240960 0.212240 0.000000 0.000000 0.000000 0.000000 0.000000 0.000000 0.000000 0.000000 0.000000 0.000000 0.000000 0.000000 0.000000 0.000000 0.000000 0.000000 0.000000 0.000000 0.000000 0.000000 0.000000 0.000000 0.000000 0.000000 0.000000 0.000000 0.000000 0.000000 0.000000 0.000000 0.000000 0.000000 72.457860 0.000000 0.000000 0.000000 0.000000 0.000000 0.000000 0.000000 0.000000 0.000000 0.000000 0.000000 0.000000 0.000000 0.000000 0.000000 -38.608460 -8.487062 -36.337600 51.801080 -14.795360 17.418850 0.379197 3.892193 1.846013 -0.000001 0.000000 0.000000 -62.777750 -0.244821 -1.246826 40.266170 0.894564 -0.432080 -0.832208 1.414774 0.688961 -0.000001 0.000000 0.000000
 16.9130 90.0467 2.5587 -38.872330 149.909500 381.541100 4.361731 11.291980 -2.826114 4.361731 11.291980 -2.826114 4.361731 11.291980 -2.826114 0.000000 0.000000 0.000000 0.000000 0.000000 0.000000 -6.757104 -11.582590 -20.643860 -375.598600 17.690670 -355.437000 -15.318280 -60.378960 -0.024867 0.000000 0.000000 0.000000 0.000000 0.000000 0.000000 0.000000 0.000000 0.000000 0.000000 0.000000 0.000000 0.000000 0.000000 0.000000 0.000000 0.000000 0.000000 0.000000 0.000000 0.000000 0.000000 0.000000 0.000000 0.000000 0.000000 0.000000 0.000000 0.000000 0.000000 0.000000 0.000000 0.000000 0.000000 0.000000 0.000000 0.000000 0.000000 0.000000 0.000000 0.000000 0.000000 0.000000 0.000000 0.000000 0.000000 0.000000 0.000000 0.025837 11.424040 5.545273 179.393900 131.078200 -160.265100 0.049206 61.241500 0.241917 0.000000 0.000000 0.000000 0.000000 0.000000 0.000000 0.000000 0.000000 0.000000 0.000000 0.000000 0.000000 0.000000 0.000000 0.000000 0.000000 0.000000 0.000000 0.000000 0.000000 0.000000 0.000000 0.000000 0.000000 0.000000 0.000000 0.000000 0.000000 0.000000 0.000000 0.000000 0.000000 72.457860 0.000000 0.000000 0.000000 0.000000 0.000000 0.000000 0.000000 0.000000 0.000000 0.000000 0.000000 0.000000 0.000000 0.000000 0.000000 -37.927960 -8.440611 -35.602920 50.780910 -14.699200 16.739770 0.261345 3.362961 1.598413 -0.000001 0.000000 0.000000 -62.858450 -0.006893 -1.785047 39.513450 0.817667 -0.361441 -0.417670 0.773638 0.373593 -0.000001 0.000000 0.000000
 17.1843 90.2924 2.3791 -39.081440 150.979900 381.243700 4.333190 11.337110 -2.983518 4.333190 11.337110 -2.983518 4.333190 11.337110 -2.983518 0.000000 0.000000 0.000000 0.000000 0.000000 0.000000 -6.715993 -11.727780 -20.574490 -376.140700 18.063640 -353.589300 -14.871210 -58.496700 -0.022889 0.000000 0.000000 0.000000 0.000000 0.000000 0.000000 0.000000 0.000000 0.000000 0.000000 0.000000 0.000000 0.000000 0.000000 0.000000 0.000000 0.000000 0.000000 0.000000 0.000000 0.000000 0.000000 0.000000 0.000000 0.000000 0.000000 0.000000 0.000000 0.000000 0.000000 0.000000 0.000000 0.000000 0.000000 0.000000 0.000000 0.000000 0.000000 0.000000 0.000000 0.000000 0.000000 0.000000 0.000000 0.000000 0.000000 0.000000 0.000000 0.189792 11.572760 5.246765 181.057800 131.714600 -164.544300 0.891547 62.634100 0.287525 0.000000 0.000000 0.000000 0.000000 0.000000 0.000000 0.000000 0.000000 0.000000 0.000000 0.000000 0.000000 0.000000 0.000000 0.000000 0.000000 0.000000 0.000000 0.000000 0.000000 0.000000 0.000000 0.000000 0.000000 0.000000 0.000000 0.000000 0.000000 0.000000 0.000000 0.000000 0.000000 72.457860 0.000000 0.000000 0.000000 0.000000 0.000000 0.000000 0.000000 0.000000 0.000000 0.000000 0.000000 0.000000 0.000000 0.000000 0.000000 -37.243030 -8.534432 -34.717480 49.608650 -14.687660 16.095210 0.184074 2.820295 1.343289 -0.000001 0.000000 0.000000 -62.844490 0.210573 -2.060526 38.651760 0.845780 -0.380373 -0.019859 0.126914 0.060970 -0.000001 0.000000 0.000000
 17.4812 90.5450 2.2042 -39.113050 151.911300 380.668500 4.316270 11.398410 -3.034885 4.316270 11.398410 -3.034885 4.316270 11.398410 -3.034885 0.000000 0.000000 0.000000 0.000000 0.000000 0.000000 -6.682992 -11.864460 -20.522190 -376.546600 18.006690 -352.720800 -14.805140 -56.568420 -0.015185 0.000000 0.000000 0.000000 0.000000 0.000000 0.000000 0.000000 0.000000 0.000000 0.000000 0.000000 0.000000 0.000000 0.000000 0.000000 0.000000 0.000000 0.000000 0.000000 0.000000 0.000000 0.000000 0.000000 0.000000 0.000000 0.000000 0.000000 0.000000 0.000000 0.000000 0.000000 0.000000 0.000000 0.000000 0.000000 0.000000 0.000000 0.000000 0.000000 0.000000 0.000000 0.000000 0.000000 0.000000 0.000000 0.000000 0.000000 0.000000 0.340802 11.713800 4.974801 183.094700 132.729200 -169.071500 1.997325 64.437740 0.365795 0.000000 0.000000 0.000000 0.000000 0.000000 0.000000 0.000000 0.000000 0.000000 0.000000 0.000000 0.000000 0.000000 0.000000 0.000000 0.000000 0.000000 0.000000 0.000000 0.000000 0.000000 0.000000 0.000000 0.000000 0.000000 0.000000 0.000000 0.000000 0.000000 0.000000 0.000000 0.000000 72.457860 0.000000 0.000000 0.000000 0.000000 0.000000 0.000000 0.000000 0.000000 0.000000 0.000000 0.000000 0.000000 0.000000 0.000000 0.000000 -36.378710 -8.814480 -33.768610 48.382830 -14.747170 15.521440 0.455483 2.627111 1.246093 -0.000001 0.000000 0.000000 -62.643840 0.281531 -2.214653 37.810970 0.817529 -0.354562 0.275237 -0.443614 -0.211035 -0.000001 0.000000 0.000000
